<?xml version="1.0" encoding="utf-8"?>
<!-- Generator: Adobe Illustrator 16.0.0, SVG Export Plug-In . SVG Version: 6.00 Build 0)  -->
<!DOCTYPE svg PUBLIC "-//W3C//DTD SVG 1.1//EN" "http://www.w3.org/Graphics/SVG/1.1/DTD/svg11.dtd">
<svg version="1.1" id="Layer_1" xmlns="http://www.w3.org/2000/svg" xmlns:xlink="http://www.w3.org/1999/xlink" x="0px" y="0px"
	 width="16px" height="16px" viewBox="0 0 16 16" enable-background="new 0 0 16 16" xml:space="preserve">
<g>
	<path fill="#59595B" d="M0.009,0.756c-0.044-0.417,0.32-0.799,0.72-0.746c1.822,0.009,3.644-0.045,5.466,0.035v0.312
		C5.582,1.121,4.854,1.761,4.205,2.48c0.524,0.587,1.137,1.093,1.599,1.733C6.16,4.729,5.609,5.21,5.298,5.556
		C4.96,5.876,4.507,6.453,4.018,6.08C3.414,5.592,2.934,4.952,2.365,4.409C1.681,5.085,1.076,5.85,0.348,6.48L0.045,6.489
		C-0.035,4.579,0.026,2.667,0.009,0.756z"/>
	<path fill="#59595B" d="M9.804,0.045c1.823-0.08,3.654-0.026,5.476-0.026c0.4-0.062,0.764,0.32,0.703,0.737
		c0,1.911,0.053,3.823-0.027,5.725h-0.303c-0.72-0.631-1.334-1.396-2.018-2.071c-0.568,0.543-1.049,1.183-1.662,1.68
		c-0.488,0.364-0.941-0.213-1.271-0.541C10.391,5.2,9.849,4.729,10.187,4.214c0.472-0.641,1.084-1.138,1.608-1.733
		c-0.648-0.72-1.387-1.359-1.982-2.124L9.804,0.045z"/>
	<path fill="#59595B" d="M0.045,9.521l0.303,0.009c0.728,0.622,1.333,1.387,2.017,2.062c0.569-0.542,1.049-1.19,1.662-1.679
		c0.498-0.356,0.942,0.222,1.28,0.541c0.303,0.348,0.844,0.817,0.507,1.333c-0.471,0.641-1.084,1.139-1.608,1.733
		c0.568,0.605,1.154,1.201,1.724,1.796c0.143,0.178,0.382,0.382,0.258,0.64c-1.822,0.08-3.645,0.027-5.466,0.036
		c-0.391,0.053-0.756-0.329-0.711-0.738C0.018,13.342-0.035,11.422,0.045,9.521z"/>
	<path fill="#59595B" d="M13.635,11.591c0.684-0.675,1.298-1.439,2.027-2.07c0.417-0.179,0.302,0.302,0.328,0.578
		c0,1.715,0.018,3.43,0,5.154c0.045,0.409-0.32,0.791-0.711,0.738c-1.821-0.009-3.652,0.044-5.476-0.036l0.019-0.32
		c0.595-0.764,1.324-1.396,1.973-2.115c-0.524-0.595-1.137-1.102-1.608-1.741c-0.338-0.516,0.204-0.978,0.515-1.325
		c0.33-0.328,0.773-0.897,1.271-0.541C12.586,10.4,13.066,11.049,13.635,11.591z"/>
</g>
<g>
</g>
<g>
</g>
<g>
</g>
<g>
</g>
<g>
</g>
<g>
</g>
<g>
</g>
<g>
</g>
<g>
</g>
<g>
</g>
<g>
</g>
<g>
</g>
<g>
</g>
<g>
</g>
<g>
</g>
</svg>
