<?xml version="1.0" encoding="utf-8"?>
<!-- Generator: Adobe Illustrator 16.0.0, SVG Export Plug-In . SVG Version: 6.00 Build 0)  -->
<!DOCTYPE svg PUBLIC "-//W3C//DTD SVG 1.1//EN" "http://www.w3.org/Graphics/SVG/1.1/DTD/svg11.dtd">
<svg version="1.1" id="Layer_1" xmlns="http://www.w3.org/2000/svg" xmlns:xlink="http://www.w3.org/1999/xlink" x="0px" y="0px"
	 width="17px" height="17px" viewBox="0 -0.5 17 17" enable-background="new 0 -0.5 17 17" xml:space="preserve">
<path fill="#59595B" d="M9.945,0C9.721,1.448,9.173,2.855,8.279,4.093C7.133,5.727,5.565,7.108,4.48,8.775
	C4.346,8.961,4.362,9.18,4.362,9.383c0.008,1.895,0,3.789,0,5.676c1.962,0.396,3.933,0.793,5.947,0.91
	c1.439,0.075,2.922,0.041,4.295-0.396c0.262-0.06,0.379-0.286,0.504-0.472c1.028-1.651,1.609-3.504,1.729-5.365
	c0.042-1.086-0.061-2.231-0.707-3.183c-0.102-0.194-0.363-0.143-0.557-0.168c-1.036-0.034-2.063,0.118-3.1,0.076
	c-0.514-0.025-1.053-0.109-1.457-0.404c-0.076-0.134,0.075-0.278,0.117-0.404c0.516-0.96,0.951-1.962,1.129-3.015
	c0.084-0.682,0.109-1.44-0.404-2.004C11.402,0.135,10.637,0.025,9.945,0z M0.008,8.7C0,10.975,0.017,13.257,0,15.529
	c0.27,0.094,0.539,0.187,0.834,0.195c0.985,0.084,1.406,0.049,2.358-0.203c0.008-2.393,0.017-4.775,0-7.167
	C1.937,8.127,1.188,8.271,0.008,8.7z"/>
</svg>
