<?xml version="1.0" encoding="utf-8"?>
<!-- Generator: Adobe Illustrator 16.0.0, SVG Export Plug-In . SVG Version: 6.00 Build 0)  -->
<!DOCTYPE svg PUBLIC "-//W3C//DTD SVG 1.1//EN" "http://www.w3.org/Graphics/SVG/1.1/DTD/svg11.dtd">
<svg version="1.1" id="Layer_1" xmlns="http://www.w3.org/2000/svg" xmlns:xlink="http://www.w3.org/1999/xlink" x="0px" y="0px"
	 width="16px" height="16px" viewBox="0 0 16 16" enable-background="new 0 0 16 16" xml:space="preserve">
<g>
	<path fill="#59595B" d="M5.833,0.891v14.234c0,0.416-0.332,0.779-0.736,0.812c-0.946,0.084-1.914,0.084-2.861,0
		C1.832,15.904,1.5,15.541,1.5,15.125V0.891c0-0.432,0.332-0.793,0.736-0.828c0.947-0.084,1.915-0.084,2.861,0
		C5.501,0.098,5.833,0.459,5.833,0.891z"/>
	<path fill="#59595B" d="M14.5,0.891v14.234c0,0.416-0.333,0.779-0.736,0.812c-0.946,0.084-1.915,0.084-2.861,0
		c-0.404-0.033-0.735-0.396-0.735-0.812V0.891c0-0.432,0.331-0.793,0.735-0.828c0.946-0.084,1.915-0.084,2.861,0
		C14.167,0.098,14.5,0.459,14.5,0.891z"/>
</g>
</svg>
