<?xml version="1.0" encoding="utf-8"?>
<!-- Generator: Adobe Illustrator 16.0.0, SVG Export Plug-In . SVG Version: 6.00 Build 0)  -->
<!DOCTYPE svg PUBLIC "-//W3C//DTD SVG 1.1//EN" "http://www.w3.org/Graphics/SVG/1.1/DTD/svg11.dtd">
<svg version="1.1" id="Layer_1" xmlns="http://www.w3.org/2000/svg" xmlns:xlink="http://www.w3.org/1999/xlink" x="0px" y="0px"
	 width="22px" height="22px" viewBox="0 -3 22 22" enable-background="new 0 -3 22 22" xml:space="preserve">
<path fill="#59595B" d="M6.171,8.483c0.181-0.025,0.342-0.037,0.487-0.037c0.501,0,0.759,0.268,0.759,0.793
	c0,1.027-0.441,2.066-1.308,3.107c-0.871,1.051-1.896,1.795-3.092,2.211l-0.748,0.269C1.429,15.118,1,15.412,1,15.704
	c0,0.222,0.099,0.404,0.304,0.562c0.197,0.161,0.441,0.233,0.723,0.233c1.122,0,2.358-0.429,3.714-1.296
	c1.359-0.854,2.421-1.894,3.214-3.091c1.09-1.651,1.638-3.496,1.638-5.548c0-1.98-0.452-3.568-1.332-4.768
	C8.369,0.6,7.195,0,5.742,0C4.14,0,2.893,0.672,2.003,2.029C1.562,2.701,1.342,3.458,1.342,4.327c0,1.539,0.624,2.75,1.857,3.605
	c0.613,0.414,1.259,0.623,1.968,0.623c0.15,0,0.319-0.011,0.526-0.037L6.171,8.483z M16.575,8.483
	c0.184-0.025,0.354-0.037,0.499-0.037c0.502,0,0.747,0.268,0.747,0.793c0,1.027-0.429,2.066-1.295,3.107
	c-0.87,1.051-1.895,1.795-3.092,2.211l-0.759,0.269c-0.844,0.294-1.271,0.588-1.271,0.88c0,0.222,0.11,0.404,0.307,0.562
	c0.206,0.159,0.45,0.231,0.72,0.231c1.124,0,2.359-0.429,3.715-1.296c1.357-0.854,2.433-1.894,3.227-3.091
	C20.462,10.461,21,8.616,21,6.564c0-1.98-0.443-3.568-1.333-4.768C18.786,0.6,17.614,0,16.158,0c-1.61,0-2.857,0.672-3.738,2.029
	c-0.451,0.671-0.673,1.429-0.673,2.297c0,1.539,0.623,2.75,1.86,3.605c0.61,0.414,1.27,0.623,1.965,0.623
	c0.147,0,0.332-0.011,0.528-0.037L16.575,8.483z"/>
</svg>
