<?xml version="1.0" encoding="utf-8"?>
<!-- Generator: Adobe Illustrator 16.0.0, SVG Export Plug-In . SVG Version: 6.00 Build 0)  -->
<!DOCTYPE svg PUBLIC "-//W3C//DTD SVG 1.1//EN" "http://www.w3.org/Graphics/SVG/1.1/DTD/svg11.dtd">
<svg version="1.1" id="Layer_1" xmlns="http://www.w3.org/2000/svg" xmlns:xlink="http://www.w3.org/1999/xlink" x="0px" y="0px"
	 width="16px" height="16px" viewBox="0 0 16 16" enable-background="new 0 0 16 16" xml:space="preserve">
<path fill-rule="evenodd" clip-rule="evenodd" fill="#59595B" d="M9.055,2.289c2.436,0,3.646,1.245,3.646,3.729
	c0,2.491-1.211,3.729-3.646,3.729c-2.427,0-3.645-1.238-3.645-3.729C5.41,3.534,6.627,2.289,9.055,2.289z M1.452,15.721
	c0.522,0.432,1.294,0.355,1.719-0.18l3.186-4c0.751,0.277,1.635,0.432,2.658,0.438c3.902,0.027,5.871-1.954,5.899-5.947
	C14.94,2.039,13,0.028,9.098,0c-3.903-0.028-5.872,1.955-5.9,5.947C3.184,7.729,3.587,9.092,4.36,10.08l-3.089,3.881
	C0.847,14.498,0.93,15.283,1.452,15.721z"/>
<g>
</g>
<g>
</g>
<g>
</g>
<g>
</g>
<g>
</g>
<g>
</g>
<g>
</g>
<g>
</g>
<g>
</g>
<g>
</g>
<g>
</g>
<g>
</g>
<g>
</g>
<g>
</g>
<g>
</g>
</svg>
