<?xml version="1.0" encoding="utf-8"?>
<!-- Generator: Adobe Illustrator 16.0.0, SVG Export Plug-In . SVG Version: 6.00 Build 0)  -->
<!DOCTYPE svg PUBLIC "-//W3C//DTD SVG 1.1//EN" "http://www.w3.org/Graphics/SVG/1.1/DTD/svg11.dtd">
<svg version="1.1" id="Layer_1" xmlns="http://www.w3.org/2000/svg" xmlns:xlink="http://www.w3.org/1999/xlink" x="0px" y="0px"
	 width="16px" height="16px" viewBox="0 0 16 16" enable-background="new 0 0 16 16" xml:space="preserve">
<path fill="#59595B" d="M3.623,9.678L0.344,7.025c0,0-0.571-1.166-0.24-1.574c0.492-0.607,4.297-0.364,4.297-0.364l0.726-0.035
	l1.48-3.466c0,0,0.526-1.079,1.148-1.085c0.612-0.004,1.319,1.074,1.319,1.074l1.687,3.594l3.737-0.023c0,0,1.225,0.036,1.447,0.49
	c0.256,0.519-0.476,1.286-0.476,1.286l-3.168,2.52l1.069,4.43c0,0,0.31,1.108-0.073,1.41c-0.462,0.355-1.636-0.071-1.636-0.071
	l-3.704-2.578L3.98,15.188c0,0-1.013,0.537-1.451,0.202c-0.396-0.298-0.223-1.47-0.223-1.47L3.623,9.678z"/>
</svg>
