<?xml version="1.0" encoding="utf-8"?>
<!-- Generator: Adobe Illustrator 16.0.0, SVG Export Plug-In . SVG Version: 6.00 Build 0)  -->
<!DOCTYPE svg PUBLIC "-//W3C//DTD SVG 1.1//EN" "http://www.w3.org/Graphics/SVG/1.1/DTD/svg11.dtd">
<svg version="1.1" id="Layer_1" xmlns="http://www.w3.org/2000/svg" xmlns:xlink="http://www.w3.org/1999/xlink" x="0px" y="0px"
	 width="16px" height="16px" viewBox="0 0 16 16" enable-background="new 0 0 16 16" xml:space="preserve">
<path fill-rule="evenodd" clip-rule="evenodd" fill="#59595B" d="M9.886,11.129L7.253,9.031c-0.213-0.195-0.337-0.48-0.32-0.747
	l0.178-4.231c0.017-0.498,1.76-0.444,1.777,0l0.16,3.787l2.062,2.026c0.337,0.374,0.319,0.942-0.054,1.263
	C10.738,11.432,10.223,11.432,9.886,11.129z M13.973,8c0-3.235-2.719-5.973-5.973-5.973C4.764,2.027,2.027,4.765,2.027,8
	c0,3.236,2.737,5.973,5.973,5.973C11.254,13.973,13.973,11.236,13.973,8z M16,8c0,4.408-3.59,8-8,8c-4.409,0-8-3.592-8-8
	c0-4.409,3.591-8,8-8C12.41,0,16,3.591,16,8z"/>
<g>
</g>
<g>
</g>
<g>
</g>
<g>
</g>
<g>
</g>
<g>
</g>
<g>
</g>
<g>
</g>
<g>
</g>
<g>
</g>
<g>
</g>
<g>
</g>
<g>
</g>
<g>
</g>
<g>
</g>
</svg>
