<?xml version="1.0" encoding="utf-8"?>
<!-- Generator: Adobe Illustrator 16.0.0, SVG Export Plug-In . SVG Version: 6.00 Build 0)  -->
<!DOCTYPE svg PUBLIC "-//W3C//DTD SVG 1.1//EN" "http://www.w3.org/Graphics/SVG/1.1/DTD/svg11.dtd">
<svg version="1.1" id="Layer_1" xmlns="http://www.w3.org/2000/svg" xmlns:xlink="http://www.w3.org/1999/xlink" x="0px" y="0px"
	 width="16px" height="16px" viewBox="0 0 16 16" enable-background="new 0 0 16 16" xml:space="preserve">
<path fill-rule="evenodd" clip-rule="evenodd" fill="#59595B" d="M14.561,15.719c-0.482,0.406-1.182,0.37-1.625-0.085l-4.938-4.925
	l-4.923,4.925c-0.456,0.455-1.17,0.479-1.638,0.085c-1.095-0.897-0.257-0.06-1.157-1.156c-0.394-0.48-0.368-1.182,0.074-1.637
	l4.937-4.924L0.379,3.089C-0.088,2.623-0.126,1.921,0.28,1.44c0.9-1.108,0.037-0.246,1.146-1.145
	C1.905-0.11,2.619-0.099,3.088,0.369l4.91,4.911l4.913-4.911c0.468-0.468,1.182-0.479,1.649-0.098
	c1.108,0.898,0.271,0.061,1.17,1.169c0.381,0.467,0.368,1.182-0.099,1.649l-4.913,4.912l4.925,4.924
	c0.455,0.455,0.468,1.156,0.062,1.648C14.807,15.683,15.669,14.821,14.561,15.719z"/>
<g>
</g>
<g>
</g>
<g>
</g>
<g>
</g>
<g>
</g>
<g>
</g>
<g>
</g>
<g>
</g>
<g>
</g>
<g>
</g>
<g>
</g>
<g>
</g>
<g>
</g>
<g>
</g>
<g>
</g>
</svg>
