<?xml version="1.0" encoding="utf-8"?>
<!-- Generator: Adobe Illustrator 16.0.0, SVG Export Plug-In . SVG Version: 6.00 Build 0)  -->
<!DOCTYPE svg PUBLIC "-//W3C//DTD SVG 1.1//EN" "http://www.w3.org/Graphics/SVG/1.1/DTD/svg11.dtd">
<svg version="1.1" id="Layer_1" xmlns="http://www.w3.org/2000/svg" xmlns:xlink="http://www.w3.org/1999/xlink" x="0px" y="0px"
	 width="17px" height="17px" viewBox="0 -0.5 17 17" enable-background="new 0 -0.5 17 17" xml:space="preserve">
<path fill="#59595B" d="M6.898,16c0.227-1.449,0.773-2.855,1.667-4.094c1.146-1.633,2.714-3.014,3.798-4.682
	c0.135-0.186,0.119-0.404,0.119-0.606c-0.008-1.896,0-3.79,0-5.677c-1.963-0.396-3.934-0.792-5.947-0.91
	C5.095-0.044,3.613-0.01,2.241,0.428c-0.262,0.059-0.38,0.286-0.505,0.471c-1.028,1.652-1.61,3.503-1.728,5.366
	c-0.042,1.086,0.06,2.231,0.707,3.184c0.102,0.193,0.363,0.143,0.557,0.168C2.308,9.65,3.335,9.498,4.371,9.541
	C4.884,9.566,5.423,9.65,5.829,9.945c0.075,0.133-0.076,0.277-0.118,0.404c-0.515,0.959-0.951,1.961-1.129,3.014
	c-0.084,0.684-0.109,1.441,0.405,2.004C5.441,15.865,6.208,15.975,6.898,16z M16.836,7.3c0.008-2.274-0.008-4.557,0.008-6.83
	c-0.27-0.093-0.539-0.186-0.834-0.194c-0.984-0.084-1.406-0.05-2.357,0.203c-0.008,2.392-0.018,4.775,0,7.167
	C14.908,7.873,15.656,7.729,16.836,7.3z"/>
</svg>
