<?xml version="1.0" encoding="utf-8"?>
<!-- Generator: Adobe Illustrator 16.0.0, SVG Export Plug-In . SVG Version: 6.00 Build 0)  -->
<!DOCTYPE svg PUBLIC "-//W3C//DTD SVG 1.1//EN" "http://www.w3.org/Graphics/SVG/1.1/DTD/svg11.dtd">
<svg version="1.1" id="Layer_1" xmlns="http://www.w3.org/2000/svg" xmlns:xlink="http://www.w3.org/1999/xlink" x="0px" y="0px"
	 width="17px" height="16px" viewBox="0 0 17 16" enable-background="new 0 0 17 16" xml:space="preserve">
<path fill-rule="evenodd" clip-rule="evenodd" fill="#59595B" d="M3.454,4.866C3.332,4.668,3.313,4.414,3.426,4.208
	C3.548,4,3.755,3.859,4.009,3.859h2.288c0.235-1.393,0.64-2.909,0.866-3.294C7.379,0.208,7.821,0,8.471,0s1.092,0.208,1.309,0.564
	c0.188,0.33,0.611,1.902,0.865,3.294h2.287c0.254,0,0.461,0.141,0.584,0.349c0.113,0.207,0.094,0.46-0.028,0.659
	c-1.769,2.55-4.489,4.837-4.612,4.931C8.753,9.883,8.612,9.93,8.471,9.93S8.188,9.883,8.066,9.797
	C7.943,9.703,5.205,7.417,3.454,4.866z M16.941,8.273c0,4.414-0.621,6.625-0.631,6.711C16.132,15.586,15.567,16,14.928,16H1.996
	c-0.641,0-1.186-0.414-1.365-0.998C0.622,14.918,0,12.725,0,8.273h2.749c0,2.361,0.197,4.018,0.339,4.969h10.766
	c0.143-0.969,0.34-2.625,0.34-4.969H16.941z"/>
<g>
</g>
<g>
</g>
<g>
</g>
<g>
</g>
<g>
</g>
<g>
</g>
<g>
</g>
<g>
</g>
<g>
</g>
<g>
</g>
<g>
</g>
<g>
</g>
<g>
</g>
<g>
</g>
<g>
</g>
</svg>
