<?xml version="1.0" encoding="utf-8"?>
<!-- Generator: Adobe Illustrator 16.0.0, SVG Export Plug-In . SVG Version: 6.00 Build 0)  -->
<!DOCTYPE svg PUBLIC "-//W3C//DTD SVG 1.1//EN" "http://www.w3.org/Graphics/SVG/1.1/DTD/svg11.dtd">
<svg version="1.1" id="Layer_1" xmlns="http://www.w3.org/2000/svg" xmlns:xlink="http://www.w3.org/1999/xlink" x="0px" y="0px"
	 width="16px" height="16px" viewBox="0 0 16 16" enable-background="new 0 0 16 16" xml:space="preserve">
<g>
	<path fill="#59595B" d="M9.805,0.044c1.822-0.079,3.654-0.026,5.475-0.026c0.402-0.062,0.766,0.32,0.703,0.737
		c0,1.912,0.053,3.823-0.025,5.726h-0.305c-0.719-0.632-1.332-1.396-2.016-2.071c-0.57,0.542-1.049,1.182-1.664,1.68
		c-0.488,0.364-0.941-0.213-1.27-0.542C10.391,5.2,9.85,4.729,10.188,4.214c0.471-0.641,1.084-1.139,1.607-1.733
		c-0.648-0.72-1.385-1.36-1.98-2.125L9.805,0.044z"/>
	<path fill="#59595B" d="M0.044,9.521l0.304,0.008c0.728,0.623,1.333,1.388,2.017,2.062c0.569-0.542,1.049-1.19,1.662-1.68
		c0.498-0.355,0.942,0.223,1.28,0.542c0.303,0.348,0.845,0.817,0.507,1.333c-0.472,0.641-1.084,1.139-1.608,1.734
		c0.568,0.604,1.154,1.2,1.724,1.796c0.143,0.177,0.382,0.382,0.258,0.64c-1.822,0.08-3.645,0.026-5.466,0.035
		c-0.392,0.053-0.756-0.329-0.712-0.737C0.018,13.342-0.035,11.422,0.044,9.521z"/>
</g>
<g>
</g>
<g>
</g>
<g>
</g>
<g>
</g>
<g>
</g>
<g>
</g>
<g>
</g>
<g>
</g>
<g>
</g>
<g>
</g>
<g>
</g>
<g>
</g>
<g>
</g>
<g>
</g>
<g>
</g>
</svg>
