<?xml version="1.0" encoding="utf-8"?>
<!-- Generator: Adobe Illustrator 16.0.0, SVG Export Plug-In . SVG Version: 6.00 Build 0)  -->
<!DOCTYPE svg PUBLIC "-//W3C//DTD SVG 1.1//EN" "http://www.w3.org/Graphics/SVG/1.1/DTD/svg11.dtd">
<svg version="1.1" id="Layer_1" xmlns="http://www.w3.org/2000/svg" xmlns:xlink="http://www.w3.org/1999/xlink" x="0px" y="0px"
	 width="16px" height="16px" viewBox="0 0 16 16" enable-background="new 0 0 16 16" xml:space="preserve">
<g>
	<path fill-rule="evenodd" clip-rule="evenodd" fill="#59595B" d="M1.77,5.647H14.23c0.979,0,1.77,0.791,1.77,1.77v1.167
		c0,0.979-0.791,1.768-1.77,1.768H1.77C0.791,10.352,0,9.562,0,8.583V7.417C0,6.438,0.791,5.647,1.77,5.647z"/>
	<path fill-rule="evenodd" clip-rule="evenodd" fill="#59595B" d="M10.354,1.77V14.23c0,0.979-0.791,1.77-1.77,1.77H7.417
		c-0.979,0-1.77-0.791-1.77-1.77V1.77C5.647,0.791,6.438,0,7.417,0h1.167C9.562,0,10.354,0.791,10.354,1.77z"/>
</g>
<g>
</g>
<g>
</g>
<g>
</g>
<g>
</g>
<g>
</g>
<g>
</g>
<g>
</g>
<g>
</g>
<g>
</g>
<g>
</g>
<g>
</g>
<g>
</g>
<g>
</g>
<g>
</g>
<g>
</g>
</svg>
