<?xml version="1.0" encoding="utf-8"?>
<!-- Generator: Adobe Illustrator 16.0.0, SVG Export Plug-In . SVG Version: 6.00 Build 0)  -->
<!DOCTYPE svg PUBLIC "-//W3C//DTD SVG 1.1//EN" "http://www.w3.org/Graphics/SVG/1.1/DTD/svg11.dtd">
<svg version="1.1" id="Layer_1" xmlns="http://www.w3.org/2000/svg" xmlns:xlink="http://www.w3.org/1999/xlink" x="0px" y="0px"
	 width="16px" height="16px" viewBox="0 0 16 16" enable-background="new 0 0 16 16" xml:space="preserve">
<path fill="#59595B" d="M12.84,9.604c0,0-0.935,0.083-1.006,0.379c-0.414,1.764-2,3.077-3.894,3.077c-2.201,0-4-1.793-4-4.001
	c0-2.201,1.799-4,4-4c0.166,0,0.645-0.064,0.811-0.041L8.71,7.101l0.728,0.077l3.468-3.166V3.178L9.444,0.124L8.71,0l0.006,2.131
	C8.544,2.118,8.106,2.124,7.94,2.124C4.118,2.124,1,5.237,1,9.059C1,12.888,4.118,16,7.94,16c3.101,0,5.734-2.042,6.622-4.853
	c0.064-0.219-0.136-0.639-0.136-0.639L12.84,9.604z"/>
<g>
</g>
<g>
</g>
<g>
</g>
<g>
</g>
<g>
</g>
<g>
</g>
<g>
</g>
<g>
</g>
<g>
</g>
<g>
</g>
<g>
</g>
<g>
</g>
<g>
</g>
<g>
</g>
<g>
</g>
</svg>
