<?xml version="1.0" encoding="utf-8"?>
<!-- Generator: Adobe Illustrator 16.0.0, SVG Export Plug-In . SVG Version: 6.00 Build 0)  -->
<!DOCTYPE svg PUBLIC "-//W3C//DTD SVG 1.1//EN" "http://www.w3.org/Graphics/SVG/1.1/DTD/svg11.dtd">
<svg version="1.1" id="Layer_1" xmlns="http://www.w3.org/2000/svg" xmlns:xlink="http://www.w3.org/1999/xlink" x="0px" y="0px"
	 width="16px" height="16px" viewBox="0 0 16 16" enable-background="new 0 0 16 16" xml:space="preserve">
<path fill-rule="evenodd" clip-rule="evenodd" fill="#59595B" d="M3.955,0.723C3.848,0.819,3.821,0.971,3.838,1.104
	C3.91,1.833,4.017,2.553,4.15,3.264C4.035,3.503,3.901,3.752,3.679,3.904c-0.143,0.105-0.32,0.168-0.48,0.239
	c-0.693-0.115-1.387-0.222-2.08-0.293c-0.124-0.009-0.274,0-0.373,0.089C0.266,4.393,0.008,5.05,0,5.708
	c-0.009,0.143,0.089,0.267,0.195,0.348C0.702,6.473,1.217,6.854,1.75,7.237c0.062,0.053,0.152,0.089,0.205,0.16
	c0.124,0.302,0.187,0.666,0.071,0.985C1.981,8.49,1.955,8.605,1.866,8.686c-0.561,0.4-1.12,0.809-1.653,1.235
	C0.115,10.01,0,10.126,0,10.268c-0.009,0.516,0.16,1.04,0.471,1.457c0.098,0.134,0.195,0.285,0.338,0.375
	c0.151,0.079,0.32,0.035,0.489,0.017c0.604-0.053,1.208-0.15,1.812-0.249c0.071-0.009,0.16-0.034,0.231,0.01
	c0.231,0.106,0.471,0.249,0.622,0.472c0.071,0.124,0.143,0.257,0.178,0.391c-0.115,0.72-0.231,1.439-0.303,2.168
	c-0.008,0.125,0.01,0.259,0.099,0.355c0.373,0.365,0.854,0.623,1.378,0.694c0.23,0.044,0.533,0.106,0.702-0.116
	c0.523-0.622,1.004-1.28,1.466-1.955c0.338,0.018,0.676,0.026,1.004,0c0.471,0.666,0.951,1.324,1.467,1.955
	c0.133,0.169,0.373,0.178,0.578,0.143c0.443-0.054,0.879-0.213,1.236-0.489c0.168-0.133,0.391-0.275,0.373-0.516
	c-0.055-0.72-0.178-1.439-0.285-2.16c0.107-0.293,0.23-0.622,0.498-0.809c0.115-0.071,0.23-0.151,0.363-0.168
	c0.748,0.124,1.494,0.239,2.24,0.302c0.143,0.018,0.275-0.062,0.365-0.178c0.178-0.204,0.338-0.436,0.453-0.693
	c0.133-0.294,0.178-0.613,0.223-0.934c0.018-0.16-0.09-0.293-0.197-0.392c-0.531-0.435-1.084-0.844-1.643-1.244
	c-0.152-0.222-0.223-0.497-0.268-0.765c0.035-0.213,0.07-0.444,0.213-0.612c0.578-0.419,1.156-0.836,1.707-1.298
	c0.133-0.098,0.205-0.276,0.178-0.444c-0.045-0.285-0.088-0.568-0.195-0.836c-0.133-0.285-0.311-0.551-0.523-0.782
	c-0.107-0.124-0.277-0.124-0.428-0.106c-0.623,0.062-1.234,0.143-1.857,0.249c-0.08,0.009-0.17,0.044-0.258,0
	c-0.213-0.09-0.445-0.187-0.613-0.364c-0.125-0.151-0.213-0.338-0.268-0.524c0.117-0.729,0.24-1.458,0.303-2.195
	c0.01-0.249-0.223-0.41-0.4-0.543c-0.436-0.32-0.977-0.497-1.51-0.479c-0.135,0-0.232,0.098-0.303,0.187
	C9.421,0.802,8.95,1.45,8.487,2.117C8.149,2.081,7.821,2.09,7.483,2.108C7.039,1.45,6.559,0.819,6.061,0.197
	C5.972,0.1,5.866-0.007,5.723,0.002C5.066-0.025,4.425,0.277,3.955,0.723z M4.622,8.001c0-1.866,1.511-3.377,3.377-3.377
	c1.868,0,3.377,1.511,3.377,3.377s-1.51,3.378-3.377,3.378C6.132,11.379,4.622,9.867,4.622,8.001z"/>
<g>
</g>
<g>
</g>
<g>
</g>
<g>
</g>
<g>
</g>
<g>
</g>
<g>
</g>
<g>
</g>
<g>
</g>
<g>
</g>
<g>
</g>
<g>
</g>
<g>
</g>
<g>
</g>
<g>
</g>
</svg>
