<?xml version="1.0" encoding="utf-8"?>
<!-- Generator: Adobe Illustrator 16.0.0, SVG Export Plug-In . SVG Version: 6.00 Build 0)  -->
<!DOCTYPE svg PUBLIC "-//W3C//DTD SVG 1.1//EN" "http://www.w3.org/Graphics/SVG/1.1/DTD/svg11.dtd">
<svg version="1.1" id="Layer_1" xmlns="http://www.w3.org/2000/svg" xmlns:xlink="http://www.w3.org/1999/xlink" x="0px" y="0px"
	 width="16px" height="16px" viewBox="0 0 16 16" enable-background="new 0 0 16 16" xml:space="preserve">
<path fill-rule="evenodd" clip-rule="evenodd" fill="#59595B" d="M12.807,10.729c1.592-0.017,2.492,1.153,2.51,2.636
	c0.016,1.431-1.365,2.669-2.51,2.635c-1.406-0.041-2.551-1.33-2.594-2.787c-0.008-0.134-4.26-2.525-4.26-2.525
	c-0.497,0.556-1.111,0.783-1.845,0.732c-1.667-0.118-3.056-1.297-3.106-3.149c-0.051-1.735,1.263-3.09,2.98-3.124
	c0.801-0.008,1.229,0.093,1.701,0.429L9.32,3.107C9.262,2.855,9.303,2.805,9.303,2.51c0-1.676,1.113-2.535,2.393-2.509
	c1.389,0.034,2.375,0.833,2.391,2.509c0.01,1.229-0.916,2.492-2.391,2.501c-0.809,0.008-1.246-0.109-1.643-0.539L6.634,6.737
	c0.22,0.463,0.32,0.842,0.32,1.533c0,0.48-0.008,0.674-0.11,1.044l3.892,2.425C11.123,11.006,11.729,10.744,12.807,10.729z"/>
<g>
</g>
<g>
</g>
<g>
</g>
<g>
</g>
<g>
</g>
<g>
</g>
<g>
</g>
<g>
</g>
<g>
</g>
<g>
</g>
<g>
</g>
<g>
</g>
<g>
</g>
<g>
</g>
<g>
</g>
</svg>
