<?xml version="1.0" encoding="utf-8"?>
<!-- Generator: Adobe Illustrator 16.0.0, SVG Export Plug-In . SVG Version: 6.00 Build 0)  -->
<!DOCTYPE svg PUBLIC "-//W3C//DTD SVG 1.1//EN" "http://www.w3.org/Graphics/SVG/1.1/DTD/svg11.dtd">
<svg version="1.1" id="Layer_1" xmlns="http://www.w3.org/2000/svg" xmlns:xlink="http://www.w3.org/1999/xlink" x="0px" y="0px"
	 width="16px" height="16px" viewBox="0 0 16 16" enable-background="new 0 0 16 16" xml:space="preserve">
<path fill-rule="evenodd" clip-rule="evenodd" fill="#59595B" d="M5.032,10.821c-4.319,0.655-5.207,2.822-4.988,4.335
	C0.116,15.637,0,16,0,16h15.999c0,0-0.145-0.378-0.044-0.887c0.291-1.528-0.654-3.594-4.988-4.263
	c-0.844,0.714-1.862,1.136-2.953,1.136C6.909,11.986,5.89,11.564,5.032,10.821z M8.014,0C5.861,0,4.116,2.342,4.116,5.237
	c0,2.879,1.745,5.221,3.897,5.221c2.153,0,3.913-2.342,3.913-5.221C11.927,2.342,10.167,0,8.014,0z"/>
<g>
</g>
<g>
</g>
<g>
</g>
<g>
</g>
<g>
</g>
<g>
</g>
<g>
</g>
<g>
</g>
<g>
</g>
<g>
</g>
<g>
</g>
<g>
</g>
<g>
</g>
<g>
</g>
<g>
</g>
</svg>
